RBDS023runT25_grf
version=1
nRows=24
nColumns=19
inDegrees=no
endheader
time	ground_force_r_vx	ground_force_r_vy	ground_force_r_vz	ground_force_r_px	ground_force_r_py	ground_force_r_pz	ground_force_r_mx	ground_force_r_my	ground_force_r_mz	ground_force_l_vx	ground_force_l_vy	ground_force_l_vz	ground_force_l_px	ground_force_l_py	ground_force_l_pz	ground_force_l_mx	ground_force_l_my	ground_force_l_mz
     14.99900000	     83.62985352	   1429.03435683	      3.50374012	      2.23223118	      0.00000000	      0.98816364	      0.00000000	     10.79902711	      0.00000000	      0.00000000	      0.00000000	      0.00000000	      0.00000000	      0.00000000	      0.00000000	      0.00000000	      0.00000000	      0.00000000
     15.00000000	     86.38962791	   1415.75122480	      3.93342921	      2.23024060	      0.00000000	      0.98809626	      0.00000000	     10.63367359	      0.00000000	      0.00000000	      0.00000000	      0.00000000	      0.00000000	      0.00000000	      0.00000000	      0.00000000	      0.00000000	      0.00000000
     15.00100000	     89.07565698	   1401.89935879	      4.46185623	      2.22820699	      0.00000000	      0.98800783	      0.00000000	     10.47480808	      0.00000000	      0.00000000	      0.00000000	      0.00000000	      0.00000000	      0.00000000	      0.00000000	      0.00000000	      0.00000000	      0.00000000
     15.00200000	     91.76168604	   1388.04749278	      4.99028326	      2.22617338	      0.00000000	      0.98791939	      0.00000000	     10.31594258	      0.00000000	      0.00000000	      0.00000000	      0.00000000	      0.00000000	      0.00000000	      0.00000000	      0.00000000	      0.00000000	      0.00000000
     15.00300000	     94.44771511	   1374.19562677	      5.51871028	      2.22413976	      0.00000000	      0.98783095	      0.00000000	     10.15707707	      0.00000000	      0.00000000	      0.00000000	      0.00000000	      0.00000000	      0.00000000	      0.00000000	      0.00000000	      0.00000000	      0.00000000
     15.00400000	     97.07379147	   1360.00619670	      6.10819700	      2.22207438	      0.00000000	      0.98772822	      0.00000000	     10.00345403	      0.00000000	      0.00000000	      0.00000000	      0.00000000	      0.00000000	      0.00000000	      0.00000000	      0.00000000	      0.00000000	      0.00000000
     15.00500000	     99.66989149	   1345.64798460	      6.72821355	      2.21999310	      0.00000000	      0.98761833	      0.00000000	      9.85245222	      0.00000000	      0.00000000	      0.00000000	      0.00000000	      0.00000000	      0.00000000	      0.00000000	      0.00000000	      0.00000000	      0.00000000
     15.00600000	    102.26599151	   1331.28977250	      7.34823011	      2.21791183	      0.00000000	      0.98750844	      0.00000000	      9.70145041	      0.00000000	      0.00000000	      0.00000000	      0.00000000	      0.00000000	      0.00000000	      0.00000000	      0.00000000	      0.00000000	      0.00000000
     15.00700000	    104.82496338	   1316.78157443	      7.99487931	      2.21581395	      0.00000000	      0.98739153	      0.00000000	      9.55338043	      0.00000000	      0.00000000	      0.00000000	      0.00000000	      0.00000000	      0.00000000	      0.00000000	      0.00000000	      0.00000000	      0.00000000
     15.00800000	    107.30967896	   1301.97340441	      8.69479378	      2.21368289	      0.00000000	      0.98726057	      0.00000000	      9.41117411	      0.00000000	      0.00000000	      0.00000000	      0.00000000	      0.00000000	      0.00000000	      0.00000000	      0.00000000	      0.00000000	      0.00000000
     15.00900000	    109.79439453	   1287.16523439	      9.39470825	      2.21155183	      0.00000000	      0.98712961	      0.00000000	      9.26896779	      0.00000000	      0.00000000	      0.00000000	      0.00000000	      0.00000000	      0.00000000	      0.00000000	      0.00000000	      0.00000000	      0.00000000
     15.01000000	    112.27911011	   1272.35706437	     10.09462273	      2.20942077	      0.00000000	      0.98699866	      0.00000000	      9.12676147	      0.00000000	      0.00000000	      0.00000000	      0.00000000	      0.00000000	      0.00000000	      0.00000000	      0.00000000	      0.00000000	      0.00000000
     15.01100000	    114.62663633	   1257.15038202	     10.85872483	      2.20724054	      0.00000000	      0.98684782	      0.00000000	      8.99382571	      0.00000000	      0.00000000	      0.00000000	      0.00000000	      0.00000000	      0.00000000	      0.00000000	      0.00000000	      0.00000000	      0.00000000
     15.01200000	    116.97416255	   1241.94369967	     11.62282692	      2.20506032	      0.00000000	      0.98669699	      0.00000000	      8.86088996	      0.00000000	      0.00000000	      0.00000000	      0.00000000	      0.00000000	      0.00000000	      0.00000000	      0.00000000	      0.00000000	      0.00000000
     15.01300000	    119.32168876	   1226.73701731	     12.38692902	      2.20288009	      0.00000000	      0.98654615	      0.00000000	      8.72795420	      0.00000000	      0.00000000	      0.00000000	      0.00000000	      0.00000000	      0.00000000	      0.00000000	      0.00000000	      0.00000000	      0.00000000
     15.01400000	    121.55844391	   1211.29657143	     13.18114373	      2.20066945	      0.00000000	      0.98638342	      0.00000000	      8.60121593	      0.00000000	      0.00000000	      0.00000000	      0.00000000	      0.00000000	      0.00000000	      0.00000000	      0.00000000	      0.00000000	      0.00000000
     15.01500000	    123.73981352	   1195.73924377	     13.99041475	      2.19844361	      0.00000000	      0.98621473	      0.00000000	      8.47757641	      0.00000000	      0.00000000	      0.00000000	      0.00000000	      0.00000000	      0.00000000	      0.00000000	      0.00000000	      0.00000000	      0.00000000
     15.01600000	    125.92118314	   1180.18191612	     14.79968576	      2.19621777	      0.00000000	      0.98604604	      0.00000000	      8.35393689	      0.00000000	      0.00000000	      0.00000000	      0.00000000	      0.00000000	      0.00000000	      0.00000000	      0.00000000	      0.00000000	      0.00000000
     15.01700000	    128.03691552	   1164.52298577	     15.61685549	      2.19397889	      0.00000000	      0.98587235	      0.00000000	      8.23326375	      0.00000000	      0.00000000	      0.00000000	      0.00000000	      0.00000000	      0.00000000	      0.00000000	      0.00000000	      0.00000000	      0.00000000
     15.01800000	    130.02137344	   1148.66085001	     16.44982262	      2.19171397	      0.00000000	      0.98568864	      0.00000000	      8.11852335	      0.00000000	      0.00000000	      0.00000000	      0.00000000	      0.00000000	      0.00000000	      0.00000000	      0.00000000	      0.00000000	      0.00000000
     15.01900000	    132.00583136	   1132.79871426	     17.28278976	      2.18944904	      0.00000000	      0.98550493	      0.00000000	      8.00378295	      0.00000000	      0.00000000	      0.00000000	      0.00000000	      0.00000000	      0.00000000	      0.00000000	      0.00000000	      0.00000000	      0.00000000
     15.02000000	    133.99028928	   1116.93657851	     18.11575689	      2.18718411	      0.00000000	      0.98532122	      0.00000000	      7.88904254	      0.00000000	      0.00000000	      0.00000000	      0.00000000	      0.00000000	      0.00000000	      0.00000000	      0.00000000	      0.00000000	      0.00000000
     15.02100000	    135.74677218	   1100.81505089	     18.94944431	      2.18488961	      0.00000000	      0.98512607	      0.00000000	      7.78242548	      0.00000000	      0.00000000	      0.00000000	      0.00000000	      0.00000000	      0.00000000	      0.00000000	      0.00000000	      0.00000000	      0.00000000
     15.02200000	    137.50325508	   1084.69352328	     19.78313172	      2.18259510	      0.00000000	      0.98493092	      0.00000000	      7.67580842	      0.00000000	      0.00000000	      0.00000000	      0.00000000	      0.00000000	      0.00000000	      0.00000000	      0.00000000	      0.00000000	      0.00000000
